<svg xmlns="http://www.w3.org/2000/svg" xmlns:xlink="http://www.w3.org/1999/xlink" viewBox="0 0 512 512"><defs><linearGradient id="Degradado_sin_nombre_35" x1="26.13966" y1="333.51432" x2="511.42816" y2="169.86361" gradientUnits="userSpaceOnUse"><stop offset="0" stop-color="#044e97"/><stop offset="1" stop-color="#4a9bf8"/></linearGradient><linearGradient id="Degradado_sin_nombre_35-2" x1="106.56145" y1="309.03523" x2="423.71391" y2="196.60527" xlink:href="#Degradado_sin_nombre_35"/></defs><g id="CIRCLE_OUTLINE_BLACK" data-name="CIRCLE OUTLINE BLACK"><circle cx="254.13746" cy="255.18875" r="220.27922" fill="#fff"/><path d="M256,0C114.61511,0,0,114.61511,0,256S114.61511,512,256,512,512,397.38489,512,256,397.38489,0,256,0ZM430.76086,312.85083a183.71529,183.71529,0,0,1-32.91095,60.08154l-17.29736,50.59107c-.76538,2.06665-2.52576,2.44922-3.98.91845L359.811,407.60376a195.52269,195.52269,0,0,1-20.512,12.16943,182.44706,182.44706,0,0,1-140.13953,10.86829c-2.29608-.68884-4.59222-1.37769-6.73522-2.2196a183.73685,183.73685,0,0,1-88.0177-276.22242,32.99776,32.99776,0,0,1-4.66871-29.77295,33.34473,33.34473,0,0,1,42.0954-21.43042,30.61009,30.61009,0,0,1,8.95484,4.43921A183.708,183.708,0,0,1,430.76086,312.85083Z" fill="url(#Degradado_sin_nombre_35)"/><path d="M314.04175,98.3938c-1.99-.76538-4.05652-1.4541-6.04645-2.14307a167.38439,167.38439,0,0,0-146.87469,21.27735A33.37466,33.37466,0,0,1,121.09167,164.522a36.63288,36.63288,0,0,1-4.7453-1.99A168.0234,168.0234,0,0,0,332.10449,405.76685a183.048,183.048,0,0,0,16.379-9.56714l-15.38391-15.46045c-1.45423-1.45423-1.07153-3.2146.91839-3.90344l55.41291-18.675a169.44248,169.44248,0,0,0,26.25226-50.13172H415.683A167.37718,167.37718,0,0,0,314.04175,98.3938ZM320.624,347.29248H194.7204V317.59619l52.35144-53.65259c10.56207-10.71521,18.06274-19.21081,22.57843-25.63989,4.51568-6.35254,6.73529-12.55212,6.73529-18.44556a20.61388,20.61388,0,0,0-5.89337-14.92468,20.3577,20.3577,0,0,0-15.07782-5.96985c-11.1745,0-21.88965,7.95984-31.916,23.95606L191.5824,204.015c8.34253-12.93469,17.527-22.6549,27.4768-29.31372,9.94983-6.65869,22.57843-9.94983,38.03894-9.94983a61.1256,61.1256,0,0,1,40.5647,14.69507c11.63367,9.79688,17.527,23.11426,17.527,39.9524a53.83724,53.83724,0,0,1-7.118,26.40539c-4.66876,8.49561-13.31744,19.21082-25.94611,32.37512L250.1333,311.54968H320.624Z" fill="url(#Degradado_sin_nombre_35-2)"/></g></svg>